<mxfile host="Electron" agent="Mozilla/5.0 (Windows NT 10.0; Win64; x64) AppleWebKit/537.36 (KHTML, like Gecko) draw.io/24.7.17 Chrome/128.0.6613.36 Electron/32.0.1 Safari/537.36" version="24.7.17">
  <diagram id="Ht1M8jgEwFfnCIfOTk4-" name="Page-1">
    <mxGraphModel dx="1480" dy="1704" grid="1" gridSize="10" guides="1" tooltips="1" connect="1" arrows="1" fold="1" page="1" pageScale="1" pageWidth="1169" pageHeight="827" math="0" shadow="0">
      <root>
        <mxCell id="0" />
        <mxCell id="1" parent="0" />
        <mxCell id="gUAxlboTfl1ikJfKjO2c-2" value="Private Chain(BESU)" style="text;html=1;align=center;verticalAlign=middle;resizable=0;points=[];autosize=1;strokeColor=none;fillColor=none;" parent="1" vertex="1">
          <mxGeometry x="473.45" y="455" width="140" height="30" as="geometry" />
        </mxCell>
        <mxCell id="gUAxlboTfl1ikJfKjO2c-3" value="" style="image;aspect=fixed;html=1;points=[];align=center;fontSize=12;image=img/lib/azure2/blockchain/Consortium.svg;" parent="1" vertex="1">
          <mxGeometry x="480.00000000000006" y="120" width="80" height="80" as="geometry" />
        </mxCell>
        <mxCell id="gUAxlboTfl1ikJfKjO2c-4" value="Public Chain&lt;div&gt;&lt;br&gt;&lt;/div&gt;" style="text;html=1;align=center;verticalAlign=middle;resizable=0;points=[];autosize=1;strokeColor=none;fillColor=none;" parent="1" vertex="1">
          <mxGeometry x="475.00000000000006" y="200" width="90" height="40" as="geometry" />
        </mxCell>
        <mxCell id="gUAxlboTfl1ikJfKjO2c-5" value="" style="sketch=0;outlineConnect=0;fontColor=#232F3E;gradientColor=none;fillColor=#232F3D;strokeColor=none;dashed=0;verticalLabelPosition=bottom;verticalAlign=top;align=center;html=1;fontSize=12;fontStyle=0;aspect=fixed;pointerEvents=1;shape=mxgraph.aws4.user;" parent="1" vertex="1">
          <mxGeometry x="755" y="470" width="60" height="60" as="geometry" />
        </mxCell>
        <mxCell id="gUAxlboTfl1ikJfKjO2c-6" value="user&lt;div&gt;&lt;br&gt;&lt;/div&gt;" style="text;html=1;align=center;verticalAlign=middle;resizable=0;points=[];autosize=1;strokeColor=none;fillColor=none;" parent="1" vertex="1">
          <mxGeometry x="760" y="530" width="50" height="40" as="geometry" />
        </mxCell>
        <mxCell id="gUAxlboTfl1ikJfKjO2c-8" value="" style="verticalLabelPosition=bottom;html=1;verticalAlign=top;align=center;strokeColor=none;fillColor=#00BEF2;shape=mxgraph.azure.user;" parent="1" vertex="1">
          <mxGeometry x="280" y="475" width="70" height="65" as="geometry" />
        </mxCell>
        <mxCell id="gUAxlboTfl1ikJfKjO2c-9" value="seller&lt;div&gt;&lt;br&gt;&lt;/div&gt;" style="text;html=1;align=center;verticalAlign=middle;resizable=0;points=[];autosize=1;strokeColor=none;fillColor=none;" parent="1" vertex="1">
          <mxGeometry x="290" y="550" width="50" height="40" as="geometry" />
        </mxCell>
        <mxCell id="gUAxlboTfl1ikJfKjO2c-10" value="" style="endArrow=classic;startArrow=classic;html=1;rounded=0;" parent="1" edge="1">
          <mxGeometry width="50" height="50" relative="1" as="geometry">
            <mxPoint x="610" y="440" as="sourcePoint" />
            <mxPoint x="740" y="500" as="targetPoint" />
          </mxGeometry>
        </mxCell>
        <mxCell id="gUAxlboTfl1ikJfKjO2c-11" value="" style="endArrow=classic;startArrow=classic;html=1;rounded=0;" parent="1" edge="1">
          <mxGeometry width="50" height="50" relative="1" as="geometry">
            <mxPoint x="370" y="490" as="sourcePoint" />
            <mxPoint x="480" y="430" as="targetPoint" />
            <Array as="points" />
          </mxGeometry>
        </mxCell>
        <mxCell id="gUAxlboTfl1ikJfKjO2c-16" value="Voting Contract" style="text;html=1;align=center;verticalAlign=middle;resizable=0;points=[];autosize=1;strokeColor=none;fillColor=none;" parent="1" vertex="1">
          <mxGeometry x="530" y="70" width="110" height="30" as="geometry" />
        </mxCell>
        <mxCell id="gUAxlboTfl1ikJfKjO2c-17" value="" style="image;aspect=fixed;perimeter=ellipsePerimeter;html=1;align=center;shadow=0;dashed=0;fontColor=#4277BB;labelBackgroundColor=default;fontSize=12;spacingTop=3;image=img/lib/ibm/blockchain/smart_contract.svg;" parent="1" vertex="1">
          <mxGeometry x="560" y="20" width="50" height="50" as="geometry" />
        </mxCell>
        <mxCell id="gUAxlboTfl1ikJfKjO2c-18" value="Nodejs" style="text;html=1;align=center;verticalAlign=middle;resizable=0;points=[];autosize=1;strokeColor=none;fillColor=none;" parent="1" vertex="1">
          <mxGeometry x="745" y="348" width="60" height="30" as="geometry" />
        </mxCell>
        <mxCell id="gUAxlboTfl1ikJfKjO2c-19" value="" style="endArrow=classic;html=1;rounded=0;" parent="1" edge="1">
          <mxGeometry width="50" height="50" relative="1" as="geometry">
            <mxPoint x="770" y="450" as="sourcePoint" />
            <mxPoint x="770" y="380" as="targetPoint" />
          </mxGeometry>
        </mxCell>
        <mxCell id="gUAxlboTfl1ikJfKjO2c-20" value="" style="endArrow=classic;html=1;rounded=0;" parent="1" edge="1">
          <mxGeometry width="50" height="50" relative="1" as="geometry">
            <mxPoint x="799.5" y="210" as="sourcePoint" />
            <mxPoint x="799.5" y="120" as="targetPoint" />
          </mxGeometry>
        </mxCell>
        <mxCell id="gUAxlboTfl1ikJfKjO2c-21" value="" style="image;aspect=fixed;perimeter=ellipsePerimeter;html=1;align=center;shadow=0;dashed=0;fontColor=#4277BB;labelBackgroundColor=default;fontSize=12;spacingTop=3;image=img/lib/ibm/blockchain/smart_contract.svg;" parent="1" vertex="1">
          <mxGeometry x="775" y="30" width="50" height="50" as="geometry" />
        </mxCell>
        <mxCell id="gUAxlboTfl1ikJfKjO2c-22" value="Verify Proof Contract" style="text;html=1;align=center;verticalAlign=middle;resizable=0;points=[];autosize=1;strokeColor=none;fillColor=none;" parent="1" vertex="1">
          <mxGeometry x="735" y="80" width="130" height="30" as="geometry" />
        </mxCell>
        <mxCell id="gUAxlboTfl1ikJfKjO2c-23" value="" style="endArrow=classic;html=1;rounded=0;" parent="1" edge="1">
          <mxGeometry width="50" height="50" relative="1" as="geometry">
            <mxPoint x="750" y="50" as="sourcePoint" />
            <mxPoint x="650" y="50" as="targetPoint" />
          </mxGeometry>
        </mxCell>
        <mxCell id="gUAxlboTfl1ikJfKjO2c-24" value="True" style="text;html=1;align=center;verticalAlign=middle;resizable=0;points=[];autosize=1;strokeColor=none;fillColor=none;" parent="1" vertex="1">
          <mxGeometry x="675" y="18" width="50" height="30" as="geometry" />
        </mxCell>
        <mxCell id="gUAxlboTfl1ikJfKjO2c-26" value="" style="endArrow=classic;html=1;rounded=0;" parent="1" edge="1">
          <mxGeometry width="50" height="50" relative="1" as="geometry">
            <mxPoint x="650" y="230" as="sourcePoint" />
            <mxPoint x="580" y="180" as="targetPoint" />
          </mxGeometry>
        </mxCell>
        <mxCell id="gUAxlboTfl1ikJfKjO2c-27" value="public input&amp;nbsp;&lt;br&gt;(merkle root &amp;amp; hash(sender))" style="text;html=1;align=center;verticalAlign=middle;resizable=0;points=[];autosize=1;strokeColor=none;fillColor=none;" parent="1" vertex="1">
          <mxGeometry x="585" y="140" width="180" height="40" as="geometry" />
        </mxCell>
        <mxCell id="gUAxlboTfl1ikJfKjO2c-29" value="&lt;span style=&quot;text-wrap-mode: nowrap;&quot;&gt;MongoDB&lt;/span&gt;" style="rounded=1;whiteSpace=wrap;html=1;" parent="1" vertex="1">
          <mxGeometry x="1020" y="258" width="120" height="60" as="geometry" />
        </mxCell>
        <mxCell id="gUAxlboTfl1ikJfKjO2c-30" value="Clound/Server" style="text;html=1;align=center;verticalAlign=middle;resizable=0;points=[];autosize=1;strokeColor=none;fillColor=none;" parent="1" vertex="1">
          <mxGeometry x="1030" y="318" width="100" height="30" as="geometry" />
        </mxCell>
        <mxCell id="gUAxlboTfl1ikJfKjO2c-31" value="" style="endArrow=classic;html=1;rounded=0;" parent="1" edge="1">
          <mxGeometry width="50" height="50" relative="1" as="geometry">
            <mxPoint x="610" y="380" as="sourcePoint" />
            <mxPoint x="660" y="330" as="targetPoint" />
          </mxGeometry>
        </mxCell>
        <mxCell id="gUAxlboTfl1ikJfKjO2c-32" value="Logs Event" style="text;html=1;align=center;verticalAlign=middle;resizable=0;points=[];autosize=1;strokeColor=none;fillColor=none;" parent="1" vertex="1">
          <mxGeometry x="625" y="360" width="80" height="30" as="geometry" />
        </mxCell>
        <mxCell id="gUAxlboTfl1ikJfKjO2c-33" value="" style="endArrow=classic;html=1;rounded=0;" parent="1" edge="1">
          <mxGeometry width="50" height="50" relative="1" as="geometry">
            <mxPoint x="930" y="300" as="sourcePoint" />
            <mxPoint x="1010" y="300" as="targetPoint" />
          </mxGeometry>
        </mxCell>
        <mxCell id="gUAxlboTfl1ikJfKjO2c-34" value="" style="endArrow=classic;html=1;rounded=0;" parent="1" edge="1">
          <mxGeometry width="50" height="50" relative="1" as="geometry">
            <mxPoint x="1010" y="270" as="sourcePoint" />
            <mxPoint x="930" y="270" as="targetPoint" />
            <Array as="points">
              <mxPoint x="960" y="270" />
            </Array>
          </mxGeometry>
        </mxCell>
        <mxCell id="gUAxlboTfl1ikJfKjO2c-37" value="" style="rounded=0;whiteSpace=wrap;html=1;fillColor=none;strokeColor=#00B336;strokeWidth=2;" parent="1" vertex="1">
          <mxGeometry x="670" y="220" width="260" height="130" as="geometry" />
        </mxCell>
        <mxCell id="gUAxlboTfl1ikJfKjO2c-39" value="Private input" style="rounded=1;whiteSpace=wrap;html=1;" parent="1" vertex="1">
          <mxGeometry x="805" y="250" width="105" height="60" as="geometry" />
        </mxCell>
        <mxCell id="gUAxlboTfl1ikJfKjO2c-40" value="Public input" style="rounded=1;whiteSpace=wrap;html=1;" parent="1" vertex="1">
          <mxGeometry x="680" y="250" width="100" height="60" as="geometry" />
        </mxCell>
        <mxCell id="gUAxlboTfl1ikJfKjO2c-41" value="1" style="ellipse;whiteSpace=wrap;html=1;aspect=fixed;rotation=0;gradientColor=#223548;strokeColor=none;gradientDirection=east;fillColor=#5b738b;rounded=0;pointerEvents=0;fontFamily=Helvetica;fontSize=16;fontColor=#FFFFFF;spacingTop=4;spacingBottom=4;spacingLeft=4;spacingRight=4;points=[];fontStyle=1" parent="1" vertex="1">
          <mxGeometry x="675" y="441" width="30" height="30" as="geometry" />
        </mxCell>
        <mxCell id="gUAxlboTfl1ikJfKjO2c-42" value="1" style="ellipse;whiteSpace=wrap;html=1;aspect=fixed;rotation=0;gradientColor=#223548;strokeColor=none;gradientDirection=east;fillColor=#5b738b;rounded=0;pointerEvents=0;fontFamily=Helvetica;fontSize=16;fontColor=#FFFFFF;spacingTop=4;spacingBottom=4;spacingLeft=4;spacingRight=4;points=[];fontStyle=1" parent="1" vertex="1">
          <mxGeometry x="400" y="420" width="30" height="30" as="geometry" />
        </mxCell>
        <mxCell id="gUAxlboTfl1ikJfKjO2c-43" value="2" style="ellipse;whiteSpace=wrap;html=1;aspect=fixed;rotation=0;gradientColor=#223548;strokeColor=none;gradientDirection=east;fillColor=#5b738b;rounded=0;pointerEvents=0;fontFamily=Helvetica;fontSize=16;fontColor=#FFFFFF;spacingTop=4;spacingBottom=4;spacingLeft=4;spacingRight=4;points=[];fontStyle=1" parent="1" vertex="1">
          <mxGeometry x="605" y="318" width="30" height="30" as="geometry" />
        </mxCell>
        <mxCell id="gUAxlboTfl1ikJfKjO2c-44" value="3" style="ellipse;whiteSpace=wrap;html=1;aspect=fixed;rotation=0;gradientColor=#223548;strokeColor=none;gradientDirection=east;fillColor=#5b738b;rounded=0;pointerEvents=0;fontFamily=Helvetica;fontSize=16;fontColor=#FFFFFF;spacingTop=4;spacingBottom=4;spacingLeft=4;spacingRight=4;points=[];fontStyle=1" parent="1" vertex="1">
          <mxGeometry x="580" y="229" width="30" height="30" as="geometry" />
        </mxCell>
        <mxCell id="gUAxlboTfl1ikJfKjO2c-46" value="4" style="ellipse;whiteSpace=wrap;html=1;aspect=fixed;rotation=0;gradientColor=#223548;strokeColor=none;gradientDirection=east;fillColor=#5b738b;rounded=0;pointerEvents=0;fontFamily=Helvetica;fontSize=16;fontColor=#FFFFFF;spacingTop=4;spacingBottom=4;spacingLeft=4;spacingRight=4;points=[];fontStyle=1" parent="1" vertex="1">
          <mxGeometry x="785" y="399" width="30" height="30" as="geometry" />
        </mxCell>
        <mxCell id="gUAxlboTfl1ikJfKjO2c-47" value="5" style="ellipse;whiteSpace=wrap;html=1;aspect=fixed;rotation=0;gradientColor=#223548;strokeColor=none;gradientDirection=east;fillColor=#5b738b;rounded=0;pointerEvents=0;fontFamily=Helvetica;fontSize=16;fontColor=#FFFFFF;spacingTop=4;spacingBottom=4;spacingLeft=4;spacingRight=4;points=[];fontStyle=1" parent="1" vertex="1">
          <mxGeometry x="780" y="228" width="30" height="30" as="geometry" />
        </mxCell>
        <mxCell id="gUAxlboTfl1ikJfKjO2c-48" value="6" style="ellipse;whiteSpace=wrap;html=1;aspect=fixed;rotation=0;gradientColor=#223548;strokeColor=none;gradientDirection=east;fillColor=#5b738b;rounded=0;pointerEvents=0;fontFamily=Helvetica;fontSize=16;fontColor=#FFFFFF;spacingTop=4;spacingBottom=4;spacingLeft=4;spacingRight=4;points=[];fontStyle=1" parent="1" vertex="1">
          <mxGeometry x="810" y="145" width="30" height="30" as="geometry" />
        </mxCell>
        <mxCell id="gUAxlboTfl1ikJfKjO2c-51" value="7" style="ellipse;whiteSpace=wrap;html=1;aspect=fixed;rotation=0;gradientColor=#223548;strokeColor=none;gradientDirection=east;fillColor=#5b738b;rounded=0;pointerEvents=0;fontFamily=Helvetica;fontSize=16;fontColor=#FFFFFF;spacingTop=4;spacingBottom=4;spacingLeft=4;spacingRight=4;points=[];fontStyle=1" parent="1" vertex="1">
          <mxGeometry x="685" y="60" width="30" height="30" as="geometry" />
        </mxCell>
        <mxCell id="gUAxlboTfl1ikJfKjO2c-52" value="Send request Rating Product" style="text;html=1;align=center;verticalAlign=middle;resizable=0;points=[];autosize=1;strokeColor=none;fillColor=none;" parent="1" vertex="1">
          <mxGeometry x="825" y="399" width="180" height="30" as="geometry" />
        </mxCell>
        <mxCell id="gUAxlboTfl1ikJfKjO2c-53" value="&lt;font style=&quot;font-size: 15px;&quot;&gt;1. Ghi transaction mua bán trên private chain&lt;/font&gt;&lt;div&gt;&lt;font style=&quot;font-size: 15px;&quot;&gt;2. Backend lấy logs phát ra từ contract mua bán (websocket)&lt;/font&gt;&lt;/div&gt;&lt;div&gt;&lt;font style=&quot;font-size: 15px;&quot;&gt;3. Ghi lại logs người dùng mua hàng và lưu vào DataBase&lt;/font&gt;&lt;/div&gt;&lt;div&gt;&lt;span style=&quot;font-size: 15px; background-color: initial;&quot;&gt;4.&amp;nbsp; User gửi yêu cầu đánh giá sản phẩm&lt;/span&gt;&lt;/div&gt;&lt;div&gt;&lt;span style=&quot;font-size: 15px; background-color: initial;&quot;&gt;5. Hệ thống nhận được request thực hiện tính toán bằng chứng ZK&lt;/span&gt;&lt;br&gt;&lt;/div&gt;&lt;div&gt;&lt;font style=&quot;font-size: 15px;&quot;&gt;6. Gửi lên Verify contract trên chain public&lt;/font&gt;&lt;/div&gt;&lt;div&gt;&lt;font style=&quot;font-size: 15px;&quot;&gt;7. Nếu Verify thành công thì thực hiện Roting cho sản phẩm&lt;/font&gt;&lt;/div&gt;" style="text;html=1;align=left;verticalAlign=middle;resizable=0;points=[];autosize=1;strokeColor=none;fillColor=none;" parent="1" vertex="1">
          <mxGeometry x="1180" y="-20" width="470" height="140" as="geometry" />
        </mxCell>
        <mxCell id="xvKO3ZO_awiTZu3RV5vc-3" value="" style="image;aspect=fixed;perimeter=ellipsePerimeter;html=1;align=center;shadow=0;dashed=0;fontColor=#4277BB;labelBackgroundColor=default;fontSize=12;spacingTop=3;image=img/lib/ibm/blockchain/blockchain.svg;" parent="1" vertex="1">
          <mxGeometry x="505.95" y="366" width="84" height="84" as="geometry" />
        </mxCell>
        <mxCell id="hEmQehjzcuKqoeFt75kn-4" value="&lt;font style=&quot;font-size: 19px;&quot;&gt;&lt;b&gt;Flow System ZK (ZKCircom)&lt;/b&gt;&lt;/font&gt;" style="text;html=1;align=center;verticalAlign=middle;resizable=0;points=[];autosize=1;strokeColor=none;fillColor=none;" parent="1" vertex="1">
          <mxGeometry x="405" y="956" width="280" height="40" as="geometry" />
        </mxCell>
        <mxCell id="hEmQehjzcuKqoeFt75kn-27" style="edgeStyle=orthogonalEdgeStyle;rounded=0;orthogonalLoop=1;jettySize=auto;html=1;exitX=1;exitY=0.5;exitDx=0;exitDy=0;entryX=0;entryY=0.25;entryDx=0;entryDy=0;" parent="1" source="hEmQehjzcuKqoeFt75kn-17" target="hEmQehjzcuKqoeFt75kn-26" edge="1">
          <mxGeometry relative="1" as="geometry" />
        </mxCell>
        <mxCell id="hEmQehjzcuKqoeFt75kn-17" value="MerkleRoot(Public)" style="rounded=1;whiteSpace=wrap;html=1;" parent="1" vertex="1">
          <mxGeometry x="77.5" y="1038" width="115" height="50" as="geometry" />
        </mxCell>
        <mxCell id="hEmQehjzcuKqoeFt75kn-18" value="INPUT" style="text;html=1;align=center;verticalAlign=middle;resizable=0;points=[];autosize=1;strokeColor=none;fillColor=none;" parent="1" vertex="1">
          <mxGeometry x="105" y="996" width="60" height="30" as="geometry" />
        </mxCell>
        <mxCell id="hEmQehjzcuKqoeFt75kn-46" style="edgeStyle=orthogonalEdgeStyle;rounded=0;orthogonalLoop=1;jettySize=auto;html=1;exitX=1;exitY=0.5;exitDx=0;exitDy=0;entryX=0;entryY=0.25;entryDx=0;entryDy=0;" parent="1" source="hEmQehjzcuKqoeFt75kn-19" target="hEmQehjzcuKqoeFt75kn-22" edge="1">
          <mxGeometry relative="1" as="geometry">
            <mxPoint x="380" y="1160" as="targetPoint" />
          </mxGeometry>
        </mxCell>
        <mxCell id="hEmQehjzcuKqoeFt75kn-19" value="Merkle Proof&lt;div&gt;(Private)&lt;/div&gt;" style="rounded=1;whiteSpace=wrap;html=1;" parent="1" vertex="1">
          <mxGeometry x="75" y="1108" width="120" height="50" as="geometry" />
        </mxCell>
        <mxCell id="sezrSmu4SnytrrbVDdDT-4" style="edgeStyle=orthogonalEdgeStyle;rounded=0;orthogonalLoop=1;jettySize=auto;html=1;exitX=1;exitY=0.25;exitDx=0;exitDy=0;entryX=0;entryY=0.75;entryDx=0;entryDy=0;" parent="1" source="hEmQehjzcuKqoeFt75kn-20" target="hEmQehjzcuKqoeFt75kn-22" edge="1">
          <mxGeometry relative="1" as="geometry">
            <Array as="points">
              <mxPoint x="340" y="1338" />
              <mxPoint x="340" y="1221" />
            </Array>
          </mxGeometry>
        </mxCell>
        <mxCell id="hEmQehjzcuKqoeFt75kn-20" value="PASSWORD(Private)" style="rounded=1;whiteSpace=wrap;html=1;" parent="1" vertex="1">
          <mxGeometry x="75" y="1328" width="120" height="60" as="geometry" />
        </mxCell>
        <mxCell id="hEmQehjzcuKqoeFt75kn-22" value="Verify MerkleProof" style="rounded=1;whiteSpace=wrap;html=1;" parent="1" vertex="1">
          <mxGeometry x="380" y="1176" width="120" height="60" as="geometry" />
        </mxCell>
        <mxCell id="hEmQehjzcuKqoeFt75kn-33" style="edgeStyle=orthogonalEdgeStyle;rounded=0;orthogonalLoop=1;jettySize=auto;html=1;exitX=1;exitY=0.5;exitDx=0;exitDy=0;" parent="1" source="hEmQehjzcuKqoeFt75kn-26" target="hEmQehjzcuKqoeFt75kn-32" edge="1">
          <mxGeometry relative="1" as="geometry" />
        </mxCell>
        <mxCell id="hEmQehjzcuKqoeFt75kn-26" value="Equal" style="rounded=1;whiteSpace=wrap;html=1;" parent="1" vertex="1">
          <mxGeometry x="475" y="1048" width="120" height="60" as="geometry" />
        </mxCell>
        <mxCell id="hEmQehjzcuKqoeFt75kn-28" style="edgeStyle=orthogonalEdgeStyle;rounded=0;orthogonalLoop=1;jettySize=auto;html=1;exitX=0.5;exitY=0;exitDx=0;exitDy=0;entryX=0.004;entryY=0.63;entryDx=0;entryDy=0;entryPerimeter=0;" parent="1" source="hEmQehjzcuKqoeFt75kn-22" target="hEmQehjzcuKqoeFt75kn-26" edge="1">
          <mxGeometry relative="1" as="geometry" />
        </mxCell>
        <mxCell id="hEmQehjzcuKqoeFt75kn-32" value="AND" style="rounded=1;whiteSpace=wrap;html=1;" parent="1" vertex="1">
          <mxGeometry x="930" y="1249" width="120" height="60" as="geometry" />
        </mxCell>
        <mxCell id="hEmQehjzcuKqoeFt75kn-43" style="edgeStyle=orthogonalEdgeStyle;rounded=0;orthogonalLoop=1;jettySize=auto;html=1;exitX=1;exitY=0.5;exitDx=0;exitDy=0;entryX=0;entryY=0.25;entryDx=0;entryDy=0;" parent="1" source="hEmQehjzcuKqoeFt75kn-38" target="hEmQehjzcuKqoeFt75kn-41" edge="1">
          <mxGeometry relative="1" as="geometry" />
        </mxCell>
        <mxCell id="hEmQehjzcuKqoeFt75kn-38" value="Hash" style="rounded=1;whiteSpace=wrap;html=1;" parent="1" vertex="1">
          <mxGeometry x="440" y="1318" width="120" height="70" as="geometry" />
        </mxCell>
        <mxCell id="hEmQehjzcuKqoeFt75kn-42" style="edgeStyle=orthogonalEdgeStyle;rounded=0;orthogonalLoop=1;jettySize=auto;html=1;exitX=1;exitY=0.5;exitDx=0;exitDy=0;entryX=0;entryY=0.75;entryDx=0;entryDy=0;" parent="1" source="hEmQehjzcuKqoeFt75kn-40" target="hEmQehjzcuKqoeFt75kn-41" edge="1">
          <mxGeometry relative="1" as="geometry" />
        </mxCell>
        <mxCell id="hEmQehjzcuKqoeFt75kn-40" value="Nullifier&lt;div&gt;(Public)&lt;/div&gt;" style="rounded=1;whiteSpace=wrap;html=1;" parent="1" vertex="1">
          <mxGeometry x="72.5" y="1428" width="120" height="60" as="geometry" />
        </mxCell>
        <mxCell id="hEmQehjzcuKqoeFt75kn-47" style="edgeStyle=orthogonalEdgeStyle;rounded=0;orthogonalLoop=1;jettySize=auto;html=1;exitX=1;exitY=0.5;exitDx=0;exitDy=0;entryX=0.25;entryY=1;entryDx=0;entryDy=0;" parent="1" source="hEmQehjzcuKqoeFt75kn-41" target="hEmQehjzcuKqoeFt75kn-32" edge="1">
          <mxGeometry relative="1" as="geometry" />
        </mxCell>
        <mxCell id="hEmQehjzcuKqoeFt75kn-41" value="Equal" style="rounded=1;whiteSpace=wrap;html=1;" parent="1" vertex="1">
          <mxGeometry x="655" y="1388" width="160" height="90" as="geometry" />
        </mxCell>
        <mxCell id="hEmQehjzcuKqoeFt75kn-48" value="OUTPUT" style="text;html=1;align=center;verticalAlign=middle;resizable=0;points=[];autosize=1;strokeColor=none;fillColor=none;" parent="1" vertex="1">
          <mxGeometry x="1060" y="1300" width="70" height="30" as="geometry" />
        </mxCell>
        <mxCell id="hEmQehjzcuKqoeFt75kn-49" value="" style="edgeStyle=none;orthogonalLoop=1;jettySize=auto;html=1;rounded=0;" parent="1" edge="1">
          <mxGeometry width="100" relative="1" as="geometry">
            <mxPoint x="1050" y="1280" as="sourcePoint" />
            <mxPoint x="1120" y="1280" as="targetPoint" />
            <Array as="points" />
          </mxGeometry>
        </mxCell>
        <mxCell id="hEmQehjzcuKqoeFt75kn-50" value="&lt;font style=&quot;font-size: 15px;&quot;&gt;1. Tính toán MerkleProof rồi kẹp với hash của sender&lt;/font&gt;&lt;div style=&quot;font-size: 15px;&quot;&gt;&lt;font style=&quot;font-size: 15px;&quot;&gt;2. So sánh với MerkleRoot để chứng minh tính đúng đắn của&amp;nbsp;&lt;br&gt;giao dịch và chủ sở hữu của giao dịch&lt;/font&gt;&lt;/div&gt;&lt;div style=&quot;font-size: 15px;&quot;&gt;&lt;font style=&quot;font-size: 15px;&quot;&gt;3. Nullifier sẽ có giá trị khởi tạo là NULL&lt;/font&gt;&lt;/div&gt;&lt;div style=&quot;font-size: 15px;&quot;&gt;&lt;font style=&quot;font-size: 15px;&quot;&gt;4. Để tạo tính duy nhất cho lần vote =&amp;gt; lấy privateKey cùng với&lt;/font&gt;&lt;/div&gt;&lt;div style=&quot;font-size: 15px;&quot;&gt;&lt;font style=&quot;font-size: 15px;&quot;&gt;ProductID hash.&lt;/font&gt;&lt;/div&gt;&lt;div style=&quot;font-size: 15px;&quot;&gt;&lt;font style=&quot;font-size: 15px;&quot;&gt;5. So sánh với Nullifier nếu giá trị khác nhau thì chứng tỏ rằng&lt;/font&gt;&lt;/div&gt;&lt;div style=&quot;font-size: 15px;&quot;&gt;&lt;font style=&quot;font-size: 15px;&quot;&gt;chưa từng vote. Nếu giống thì chứng tỏ đã rate rồi&lt;/font&gt;&lt;/div&gt;&lt;div style=&quot;font-size: 15px;&quot;&gt;&lt;font style=&quot;font-size: 15px;&quot;&gt;6. OUTPUT trả về là true thì ADMIN sẽ tiến hành lấy thông tin&lt;/font&gt;&lt;/div&gt;&lt;div style=&quot;font-size: 15px;&quot;&gt;&lt;font style=&quot;font-size: 15px;&quot;&gt;rating từ user để write vào contract Rating trên public chain&lt;/font&gt;&lt;/div&gt;" style="text;html=1;align=left;verticalAlign=middle;resizable=0;points=[];autosize=1;strokeColor=none;fillColor=none;" parent="1" vertex="1">
          <mxGeometry x="1590" y="1380" width="440" height="190" as="geometry" />
        </mxCell>
        <mxCell id="EX1iJY8dr9PFhmKhgH_F-6" style="edgeStyle=orthogonalEdgeStyle;rounded=0;orthogonalLoop=1;jettySize=auto;html=1;exitX=1;exitY=0.5;exitDx=0;exitDy=0;entryX=0;entryY=0.5;entryDx=0;entryDy=0;" parent="1" source="EX1iJY8dr9PFhmKhgH_F-2" target="EX1iJY8dr9PFhmKhgH_F-3" edge="1">
          <mxGeometry relative="1" as="geometry" />
        </mxCell>
        <mxCell id="MksUnjyKGBytKfP-0ggX-3" style="edgeStyle=orthogonalEdgeStyle;rounded=0;orthogonalLoop=1;jettySize=auto;html=1;" parent="1" source="EX1iJY8dr9PFhmKhgH_F-2" edge="1">
          <mxGeometry relative="1" as="geometry">
            <mxPoint x="1934.7058823529412" y="470" as="targetPoint" />
          </mxGeometry>
        </mxCell>
        <mxCell id="EX1iJY8dr9PFhmKhgH_F-2" value="&lt;div&gt;{&lt;/div&gt;&lt;div&gt;&amp;nbsp; &quot;transactionHash&quot;: &quot;string&quot;,&amp;nbsp; &amp;nbsp; &amp;nbsp; &amp;nbsp; &amp;nbsp;// Hash của giao dịch&lt;/div&gt;&lt;div&gt;&amp;nbsp; &quot;buyerAddress&quot;: &quot;string&quot;,&amp;nbsp; &amp;nbsp; &amp;nbsp; &amp;nbsp; &amp;nbsp; &amp;nbsp;// Địa chỉ của người mua&lt;/div&gt;&lt;div&gt;&quot;productID&quot;: &quot;string&quot;,&amp;nbsp; &amp;nbsp; &amp;nbsp; &amp;nbsp; &amp;nbsp; &amp;nbsp; &amp;nbsp; // ID sản phẩm&lt;/div&gt;&lt;div&gt;&amp;nbsp; &quot;blockNumber&quot;: &quot;number&quot;,&amp;nbsp; &amp;nbsp; &amp;nbsp; &amp;nbsp; &amp;nbsp; &amp;nbsp; // Block chứa giao dịch&lt;/div&gt;&lt;div&gt;&amp;nbsp; &quot;timestamp&quot;: &quot;Date&quot;&amp;nbsp; &amp;nbsp; &amp;nbsp; &amp;nbsp; &amp;nbsp; &amp;nbsp; &amp;nbsp; &amp;nbsp; &amp;nbsp;// Thời điểm giao dịch&lt;/div&gt;&lt;div&gt;}&lt;/div&gt;&lt;div&gt;&lt;br&gt;&lt;/div&gt;" style="rounded=1;whiteSpace=wrap;html=1;" parent="1" vertex="1">
          <mxGeometry x="1380" y="430" width="360" height="140" as="geometry" />
        </mxCell>
        <mxCell id="EX1iJY8dr9PFhmKhgH_F-3" value="&lt;div&gt;{&lt;/div&gt;&lt;div&gt;&lt;span style=&quot;background-color: initial;&quot;&gt;&quot;blockNumber&quot;: &quot;number&quot;,&amp;nbsp; &amp;nbsp; &amp;nbsp; &amp;nbsp; &amp;nbsp; &amp;nbsp; // Block liên quan&lt;/span&gt;&lt;/div&gt;&lt;div&gt;&lt;span style=&quot;background-color: initial;&quot;&gt;&quot;productID&quot; :&quot;string&quot;, //////////////////////////////////////////////&lt;/span&gt;&lt;/div&gt;&lt;div&gt;&amp;nbsp; &amp;nbsp; &amp;nbsp; &quot;proofMerkle&quot;:&amp;nbsp;&lt;span class=&quot;hljs-punctuation&quot;&gt;[&lt;/span&gt;&lt;br&gt;    &lt;span class=&quot;hljs-punctuation&quot;&gt;{&lt;/span&gt;&lt;br&gt;      &lt;span class=&quot;hljs-attr&quot;&gt;&quot;hash&quot;&lt;/span&gt;&lt;span class=&quot;hljs-punctuation&quot;&gt;:&lt;/span&gt; &lt;span class=&quot;hljs-string&quot;&gt;&quot;hash_of_L1&quot;&lt;/span&gt;&lt;span class=&quot;hljs-punctuation&quot;&gt;,&lt;/span&gt;&lt;br&gt;      &lt;span class=&quot;hljs-attr&quot;&gt;&quot;position&quot;&lt;/span&gt;&lt;span class=&quot;hljs-punctuation&quot;&gt;:&lt;/span&gt; &lt;span class=&quot;hljs-string&quot;&gt;&quot;left&quot;&lt;/span&gt;&lt;br&gt;    &lt;span class=&quot;hljs-punctuation&quot;&gt;}&lt;/span&gt;&lt;span class=&quot;hljs-punctuation&quot;&gt;,&lt;/span&gt;&lt;br&gt;    &lt;span class=&quot;hljs-punctuation&quot;&gt;{&lt;/span&gt;&lt;br&gt;      &lt;span class=&quot;hljs-attr&quot;&gt;&quot;hash&quot;&lt;/span&gt;&lt;span class=&quot;hljs-punctuation&quot;&gt;:&lt;/span&gt; &lt;span class=&quot;hljs-string&quot;&gt;&quot;hash_of_HashB&quot;&lt;/span&gt;&lt;span class=&quot;hljs-punctuation&quot;&gt;,&lt;/span&gt;&lt;br&gt;      &lt;span class=&quot;hljs-attr&quot;&gt;&quot;position&quot;&lt;/span&gt;&lt;span class=&quot;hljs-punctuation&quot;&gt;:&lt;/span&gt; &lt;span class=&quot;hljs-string&quot;&gt;&quot;right&quot;&lt;/span&gt;&lt;br&gt;    &lt;span class=&quot;hljs-punctuation&quot;&gt;}&lt;/span&gt;&lt;br&gt;  &lt;span class=&quot;hljs-punctuation&quot;&gt;]&lt;/span&gt;&lt;span class=&quot;hljs-punctuation&quot;&gt;,&lt;/span&gt;&amp;nbsp; &amp;nbsp; &amp;nbsp; &amp;nbsp;&lt;/div&gt;&lt;div&gt;&amp;nbsp;&amp;nbsp;&lt;/div&gt;&lt;div&gt;}&lt;/div&gt;&lt;div&gt;&lt;br&gt;&lt;/div&gt;" style="rounded=1;whiteSpace=wrap;html=1;" parent="1" vertex="1">
          <mxGeometry x="1840" y="460" width="430" height="230" as="geometry" />
        </mxCell>
        <mxCell id="EX1iJY8dr9PFhmKhgH_F-4" value="&lt;div&gt;{&lt;/div&gt;&lt;div&gt;&amp;nbsp; &quot;productID&quot;: &quot;string&quot;,&amp;nbsp; &amp;nbsp; &amp;nbsp; &amp;nbsp; &amp;nbsp; &amp;nbsp; &amp;nbsp; // ID sản phẩm&lt;/div&gt;&lt;div&gt;&amp;nbsp; &quot;provingKey&quot;: &quot;file&quot;,&amp;nbsp; &amp;nbsp; &amp;nbsp; &amp;nbsp; &amp;nbsp; &amp;nbsp; &amp;nbsp;// ProvingKey&lt;/div&gt;&lt;div&gt;&amp;nbsp;&amp;nbsp;&lt;/div&gt;&lt;div&gt;}&lt;/div&gt;&lt;div&gt;&lt;br&gt;&lt;/div&gt;" style="rounded=1;whiteSpace=wrap;html=1;" parent="1" vertex="1">
          <mxGeometry x="1670" y="768" width="280" height="250" as="geometry" />
        </mxCell>
        <mxCell id="EX1iJY8dr9PFhmKhgH_F-7" style="edgeStyle=orthogonalEdgeStyle;rounded=0;orthogonalLoop=1;jettySize=auto;html=1;exitX=0.5;exitY=1;exitDx=0;exitDy=0;entryX=0.45;entryY=0.015;entryDx=0;entryDy=0;entryPerimeter=0;" parent="1" source="EX1iJY8dr9PFhmKhgH_F-2" target="EX1iJY8dr9PFhmKhgH_F-4" edge="1">
          <mxGeometry relative="1" as="geometry" />
        </mxCell>
        <mxCell id="JHPS7UX2ElNZRzLZO8lx-7" value="Lịch sử mua hàng" style="shape=table;startSize=30;container=1;collapsible=0;childLayout=tableLayout;strokeColor=default;fontSize=16;" parent="1" vertex="1">
          <mxGeometry x="2625" y="1035" width="345" height="155" as="geometry" />
        </mxCell>
        <mxCell id="JHPS7UX2ElNZRzLZO8lx-8" value="" style="shape=tableRow;horizontal=0;startSize=0;swimlaneHead=0;swimlaneBody=0;strokeColor=inherit;top=0;left=0;bottom=0;right=0;collapsible=0;dropTarget=0;fillColor=none;points=[[0,0.5],[1,0.5]];portConstraint=eastwest;fontSize=16;" parent="JHPS7UX2ElNZRzLZO8lx-7" vertex="1">
          <mxGeometry y="30" width="345" height="35" as="geometry" />
        </mxCell>
        <mxCell id="JHPS7UX2ElNZRzLZO8lx-9" value="TransactionHash" style="shape=partialRectangle;html=1;whiteSpace=wrap;connectable=0;strokeColor=inherit;overflow=hidden;fillColor=none;top=0;left=0;bottom=0;right=0;pointerEvents=1;fontSize=16;" parent="JHPS7UX2ElNZRzLZO8lx-8" vertex="1">
          <mxGeometry width="135" height="35" as="geometry">
            <mxRectangle width="135" height="35" as="alternateBounds" />
          </mxGeometry>
        </mxCell>
        <mxCell id="JHPS7UX2ElNZRzLZO8lx-10" value="ProductID" style="shape=partialRectangle;html=1;whiteSpace=wrap;connectable=0;strokeColor=inherit;overflow=hidden;fillColor=none;top=0;left=0;bottom=0;right=0;pointerEvents=1;fontSize=16;" parent="JHPS7UX2ElNZRzLZO8lx-8" vertex="1">
          <mxGeometry x="135" width="100" height="35" as="geometry">
            <mxRectangle width="100" height="35" as="alternateBounds" />
          </mxGeometry>
        </mxCell>
        <mxCell id="JHPS7UX2ElNZRzLZO8lx-11" value="BlockNumber" style="shape=partialRectangle;html=1;whiteSpace=wrap;connectable=0;strokeColor=inherit;overflow=hidden;fillColor=none;top=0;left=0;bottom=0;right=0;pointerEvents=1;fontSize=16;" parent="JHPS7UX2ElNZRzLZO8lx-8" vertex="1">
          <mxGeometry x="235" width="110" height="35" as="geometry">
            <mxRectangle width="110" height="35" as="alternateBounds" />
          </mxGeometry>
        </mxCell>
        <mxCell id="JHPS7UX2ElNZRzLZO8lx-12" value="" style="shape=tableRow;horizontal=0;startSize=0;swimlaneHead=0;swimlaneBody=0;strokeColor=inherit;top=0;left=0;bottom=0;right=0;collapsible=0;dropTarget=0;fillColor=none;points=[[0,0.5],[1,0.5]];portConstraint=eastwest;fontSize=16;" parent="JHPS7UX2ElNZRzLZO8lx-7" vertex="1">
          <mxGeometry y="65" width="345" height="50" as="geometry" />
        </mxCell>
        <mxCell id="JHPS7UX2ElNZRzLZO8lx-13" value="TransactionHash" style="shape=partialRectangle;html=1;whiteSpace=wrap;connectable=0;strokeColor=inherit;overflow=hidden;fillColor=none;top=0;left=0;bottom=0;right=0;pointerEvents=1;fontSize=16;" parent="JHPS7UX2ElNZRzLZO8lx-12" vertex="1">
          <mxGeometry width="135" height="50" as="geometry">
            <mxRectangle width="135" height="50" as="alternateBounds" />
          </mxGeometry>
        </mxCell>
        <mxCell id="JHPS7UX2ElNZRzLZO8lx-14" value="ProductID" style="shape=partialRectangle;html=1;whiteSpace=wrap;connectable=0;strokeColor=inherit;overflow=hidden;fillColor=none;top=0;left=0;bottom=0;right=0;pointerEvents=1;fontSize=16;" parent="JHPS7UX2ElNZRzLZO8lx-12" vertex="1">
          <mxGeometry x="135" width="100" height="50" as="geometry">
            <mxRectangle width="100" height="50" as="alternateBounds" />
          </mxGeometry>
        </mxCell>
        <mxCell id="JHPS7UX2ElNZRzLZO8lx-15" value="BlockNumber" style="shape=partialRectangle;html=1;whiteSpace=wrap;connectable=0;strokeColor=inherit;overflow=hidden;fillColor=none;top=0;left=0;bottom=0;right=0;pointerEvents=1;fontSize=16;" parent="JHPS7UX2ElNZRzLZO8lx-12" vertex="1">
          <mxGeometry x="235" width="110" height="50" as="geometry">
            <mxRectangle width="110" height="50" as="alternateBounds" />
          </mxGeometry>
        </mxCell>
        <mxCell id="JHPS7UX2ElNZRzLZO8lx-16" value="" style="shape=tableRow;horizontal=0;startSize=0;swimlaneHead=0;swimlaneBody=0;strokeColor=inherit;top=0;left=0;bottom=0;right=0;collapsible=0;dropTarget=0;fillColor=none;points=[[0,0.5],[1,0.5]];portConstraint=eastwest;fontSize=16;" parent="JHPS7UX2ElNZRzLZO8lx-7" vertex="1">
          <mxGeometry y="115" width="345" height="40" as="geometry" />
        </mxCell>
        <mxCell id="JHPS7UX2ElNZRzLZO8lx-17" value="TransactionHash" style="shape=partialRectangle;html=1;whiteSpace=wrap;connectable=0;strokeColor=inherit;overflow=hidden;fillColor=none;top=0;left=0;bottom=0;right=0;pointerEvents=1;fontSize=16;" parent="JHPS7UX2ElNZRzLZO8lx-16" vertex="1">
          <mxGeometry width="135" height="40" as="geometry">
            <mxRectangle width="135" height="40" as="alternateBounds" />
          </mxGeometry>
        </mxCell>
        <mxCell id="JHPS7UX2ElNZRzLZO8lx-18" value="ProductID" style="shape=partialRectangle;html=1;whiteSpace=wrap;connectable=0;strokeColor=inherit;overflow=hidden;fillColor=none;top=0;left=0;bottom=0;right=0;pointerEvents=1;fontSize=16;" parent="JHPS7UX2ElNZRzLZO8lx-16" vertex="1">
          <mxGeometry x="135" width="100" height="40" as="geometry">
            <mxRectangle width="100" height="40" as="alternateBounds" />
          </mxGeometry>
        </mxCell>
        <mxCell id="JHPS7UX2ElNZRzLZO8lx-19" value="BlockNumber" style="shape=partialRectangle;html=1;whiteSpace=wrap;connectable=0;strokeColor=inherit;overflow=hidden;fillColor=none;top=0;left=0;bottom=0;right=0;pointerEvents=1;fontSize=16;" parent="JHPS7UX2ElNZRzLZO8lx-16" vertex="1">
          <mxGeometry x="235" width="110" height="40" as="geometry">
            <mxRectangle width="110" height="40" as="alternateBounds" />
          </mxGeometry>
        </mxCell>
        <mxCell id="JHPS7UX2ElNZRzLZO8lx-20" value="DATABASE" style="rounded=1;whiteSpace=wrap;html=1;" parent="1" vertex="1">
          <mxGeometry x="3230" y="1030" width="120" height="60" as="geometry" />
        </mxCell>
        <mxCell id="JHPS7UX2ElNZRzLZO8lx-21" value="" style="endArrow=classic;html=1;rounded=0;" parent="1" edge="1">
          <mxGeometry width="50" height="50" relative="1" as="geometry">
            <mxPoint x="3000" y="1080" as="sourcePoint" />
            <mxPoint x="3212.823414522059" y="1050" as="targetPoint" />
          </mxGeometry>
        </mxCell>
        <mxCell id="JHPS7UX2ElNZRzLZO8lx-22" value="" style="endArrow=classic;html=1;rounded=0;" parent="1" edge="1">
          <mxGeometry width="50" height="50" relative="1" as="geometry">
            <mxPoint x="3210" y="1070" as="sourcePoint" />
            <mxPoint x="3010" y="1100" as="targetPoint" />
          </mxGeometry>
        </mxCell>
        <mxCell id="JHPS7UX2ElNZRzLZO8lx-23" value="Req(BuyerAddress)" style="text;html=1;align=center;verticalAlign=middle;resizable=0;points=[];autosize=1;strokeColor=none;fillColor=none;" parent="1" vertex="1">
          <mxGeometry x="3030" y="1030" width="130" height="30" as="geometry" />
        </mxCell>
        <mxCell id="JHPS7UX2ElNZRzLZO8lx-24" value="Res(TransactionHash, ProductID, BlockNumber)" style="text;html=1;align=center;verticalAlign=middle;resizable=0;points=[];autosize=1;strokeColor=none;fillColor=none;" parent="1" vertex="1">
          <mxGeometry x="2990" y="1090" width="280" height="30" as="geometry" />
        </mxCell>
        <mxCell id="JHPS7UX2ElNZRzLZO8lx-25" value="1. BuyerAddress lấy từ tài khoản đang đăng nhập. Lấy bằng etherjs." style="text;html=1;align=center;verticalAlign=middle;resizable=0;points=[];autosize=1;strokeColor=none;fillColor=none;" parent="1" vertex="1">
          <mxGeometry x="2790" y="1560" width="390" height="30" as="geometry" />
        </mxCell>
        <mxCell id="JHPS7UX2ElNZRzLZO8lx-26" value="2. App lấy TransactionHash, ProductID, BlockNumber những sản phẩm BuyerAddress này đã mua hiện ra màn hình" style="text;html=1;align=center;verticalAlign=middle;resizable=0;points=[];autosize=1;strokeColor=none;fillColor=none;" parent="1" vertex="1">
          <mxGeometry x="2780" y="1590" width="640" height="30" as="geometry" />
        </mxCell>
        <mxCell id="JHPS7UX2ElNZRzLZO8lx-27" value="USER want to rate product" style="whiteSpace=wrap;html=1;" parent="1" vertex="1">
          <mxGeometry x="2990" y="1428" width="120" height="60" as="geometry" />
        </mxCell>
        <mxCell id="JHPS7UX2ElNZRzLZO8lx-28" value="" style="endArrow=classic;html=1;rounded=0;" parent="1" edge="1">
          <mxGeometry width="50" height="50" relative="1" as="geometry">
            <mxPoint x="2990" y="1410" as="sourcePoint" />
            <mxPoint x="2910" y="1200" as="targetPoint" />
          </mxGeometry>
        </mxCell>
        <mxCell id="JHPS7UX2ElNZRzLZO8lx-29" value="Click sản phẩm muốn rate" style="text;html=1;align=center;verticalAlign=middle;resizable=0;points=[];autosize=1;strokeColor=none;fillColor=none;" parent="1" vertex="1">
          <mxGeometry x="2780" y="1256" width="160" height="30" as="geometry" />
        </mxCell>
        <mxCell id="JHPS7UX2ElNZRzLZO8lx-31" value="" style="endArrow=classic;html=1;rounded=0;" parent="1" edge="1">
          <mxGeometry width="50" height="50" relative="1" as="geometry">
            <mxPoint x="3120" y="1330" as="sourcePoint" />
            <mxPoint x="3240" y="1110" as="targetPoint" />
          </mxGeometry>
        </mxCell>
        <mxCell id="JHPS7UX2ElNZRzLZO8lx-32" value="Req(ProductID)" style="text;html=1;align=center;verticalAlign=middle;resizable=0;points=[];autosize=1;strokeColor=none;fillColor=none;" parent="1" vertex="1">
          <mxGeometry x="3093" y="1180" width="110" height="30" as="geometry" />
        </mxCell>
        <mxCell id="JHPS7UX2ElNZRzLZO8lx-33" value="" style="endArrow=classic;html=1;rounded=0;" parent="1" edge="1">
          <mxGeometry width="50" height="50" relative="1" as="geometry">
            <mxPoint x="3280" y="1120" as="sourcePoint" />
            <mxPoint x="3150" y="1370" as="targetPoint" />
          </mxGeometry>
        </mxCell>
        <mxCell id="JHPS7UX2ElNZRzLZO8lx-34" value="Res(MerkleProof, ProvingKey)" style="text;html=1;align=center;verticalAlign=middle;resizable=0;points=[];autosize=1;strokeColor=none;fillColor=none;" parent="1" vertex="1">
          <mxGeometry x="3220" y="1250" width="190" height="30" as="geometry" />
        </mxCell>
        <mxCell id="JHPS7UX2ElNZRzLZO8lx-35" value="" style="endArrow=classic;html=1;rounded=0;" parent="1" edge="1">
          <mxGeometry width="50" height="50" relative="1" as="geometry">
            <mxPoint x="2940" y="1200" as="sourcePoint" />
            <mxPoint x="3020" y="1410" as="targetPoint" />
          </mxGeometry>
        </mxCell>
        <mxCell id="JHPS7UX2ElNZRzLZO8lx-36" value="Res(TransactionHash, ProductID, BlockNumber)" style="text;html=1;align=center;verticalAlign=middle;resizable=0;points=[];autosize=1;strokeColor=none;fillColor=none;rotation=60;" parent="1" vertex="1">
          <mxGeometry x="2923" y="1290" width="280" height="30" as="geometry" />
        </mxCell>
        <mxCell id="JHPS7UX2ElNZRzLZO8lx-40" value="3. Người dùng muốn rate sản phẩm nào thì click vô. Lúc này lấy ProductID gửi request đến server lấy MerkleProof và ProvingKey" style="text;html=1;align=center;verticalAlign=middle;resizable=0;points=[];autosize=1;strokeColor=none;fillColor=none;" parent="1" vertex="1">
          <mxGeometry x="2780" y="1624" width="710" height="30" as="geometry" />
        </mxCell>
        <mxCell id="JHPS7UX2ElNZRzLZO8lx-41" value="&lt;font style=&quot;font-size: 18px;&quot;&gt;&lt;b&gt;Flow database web2&lt;/b&gt;&lt;/font&gt;" style="text;html=1;align=center;verticalAlign=middle;resizable=0;points=[];autosize=1;strokeColor=none;fillColor=none;" parent="1" vertex="1">
          <mxGeometry x="2900" y="880" width="200" height="40" as="geometry" />
        </mxCell>
        <mxCell id="JHPS7UX2ElNZRzLZO8lx-42" value="&lt;font style=&quot;font-size: 18px;&quot;&gt;&lt;b&gt;Flow Systemt&lt;/b&gt;&lt;/font&gt;" style="text;html=1;align=center;verticalAlign=middle;resizable=0;points=[];autosize=1;strokeColor=none;fillColor=none;" parent="1" vertex="1">
          <mxGeometry x="620" y="623" width="140" height="40" as="geometry" />
        </mxCell>
        <mxCell id="MksUnjyKGBytKfP-0ggX-1" value="3" style="ellipse;whiteSpace=wrap;html=1;aspect=fixed;rotation=0;gradientColor=#223548;strokeColor=none;gradientDirection=east;fillColor=#5b738b;rounded=0;pointerEvents=0;fontFamily=Helvetica;fontSize=16;fontColor=#FFFFFF;spacingTop=4;spacingBottom=4;spacingLeft=4;spacingRight=4;points=[];fontStyle=1" parent="1" vertex="1">
          <mxGeometry x="960" y="228" width="30" height="30" as="geometry" />
        </mxCell>
        <mxCell id="MksUnjyKGBytKfP-0ggX-2" value="" style="endArrow=classic;html=1;rounded=0;" parent="1" edge="1">
          <mxGeometry width="50" height="50" relative="1" as="geometry">
            <mxPoint x="580" y="200" as="sourcePoint" />
            <mxPoint x="630" y="240" as="targetPoint" />
          </mxGeometry>
        </mxCell>
        <mxCell id="sezrSmu4SnytrrbVDdDT-7" style="edgeStyle=orthogonalEdgeStyle;rounded=0;orthogonalLoop=1;jettySize=auto;html=1;exitX=1;exitY=0.75;exitDx=0;exitDy=0;entryX=0;entryY=0.5;entryDx=0;entryDy=0;" parent="1" source="sezrSmu4SnytrrbVDdDT-2" target="hEmQehjzcuKqoeFt75kn-38" edge="1">
          <mxGeometry relative="1" as="geometry">
            <Array as="points">
              <mxPoint x="280" y="1221" />
              <mxPoint x="280" y="1353" />
            </Array>
          </mxGeometry>
        </mxCell>
        <mxCell id="sezrSmu4SnytrrbVDdDT-2" value="DealID" style="rounded=1;whiteSpace=wrap;html=1;" parent="1" vertex="1">
          <mxGeometry x="72.5" y="1176" width="120" height="60" as="geometry" />
        </mxCell>
        <mxCell id="sezrSmu4SnytrrbVDdDT-3" value="" style="endArrow=classic;html=1;rounded=0;exitX=1;exitY=0.5;exitDx=0;exitDy=0;entryX=0;entryY=0.5;entryDx=0;entryDy=0;" parent="1" source="sezrSmu4SnytrrbVDdDT-2" target="hEmQehjzcuKqoeFt75kn-22" edge="1">
          <mxGeometry width="50" height="50" relative="1" as="geometry">
            <mxPoint x="560" y="1230" as="sourcePoint" />
            <mxPoint x="260" y="1130" as="targetPoint" />
          </mxGeometry>
        </mxCell>
        <mxCell id="sezrSmu4SnytrrbVDdDT-6" value="" style="endArrow=classic;html=1;rounded=0;exitX=1;exitY=0.75;exitDx=0;exitDy=0;entryX=0;entryY=0.75;entryDx=0;entryDy=0;" parent="1" source="hEmQehjzcuKqoeFt75kn-20" target="hEmQehjzcuKqoeFt75kn-38" edge="1">
          <mxGeometry width="50" height="50" relative="1" as="geometry">
            <mxPoint x="560" y="1230" as="sourcePoint" />
            <mxPoint x="610" y="1180" as="targetPoint" />
          </mxGeometry>
        </mxCell>
        <mxCell id="YTfJnnb_gsRbAbClFj2Y-6" style="edgeStyle=orthogonalEdgeStyle;rounded=0;orthogonalLoop=1;jettySize=auto;html=1;exitX=1;exitY=0.5;exitDx=0;exitDy=0;entryX=0;entryY=0.5;entryDx=0;entryDy=0;" edge="1" parent="1" source="YTfJnnb_gsRbAbClFj2Y-1" target="YTfJnnb_gsRbAbClFj2Y-4">
          <mxGeometry relative="1" as="geometry" />
        </mxCell>
        <mxCell id="YTfJnnb_gsRbAbClFj2Y-1" value="Hash(Vote Weight)" style="rounded=1;whiteSpace=wrap;html=1;" vertex="1" parent="1">
          <mxGeometry x="72.5" y="1660" width="120" height="60" as="geometry" />
        </mxCell>
        <mxCell id="YTfJnnb_gsRbAbClFj2Y-7" style="edgeStyle=orthogonalEdgeStyle;rounded=0;orthogonalLoop=1;jettySize=auto;html=1;exitX=1;exitY=0.5;exitDx=0;exitDy=0;entryX=0;entryY=0.25;entryDx=0;entryDy=0;" edge="1" parent="1" source="YTfJnnb_gsRbAbClFj2Y-2" target="YTfJnnb_gsRbAbClFj2Y-4">
          <mxGeometry relative="1" as="geometry" />
        </mxCell>
        <mxCell id="YTfJnnb_gsRbAbClFj2Y-2" value="Signature" style="rounded=1;whiteSpace=wrap;html=1;" vertex="1" parent="1">
          <mxGeometry x="72.5" y="1564" width="120" height="60" as="geometry" />
        </mxCell>
        <mxCell id="YTfJnnb_gsRbAbClFj2Y-5" style="edgeStyle=orthogonalEdgeStyle;rounded=0;orthogonalLoop=1;jettySize=auto;html=1;exitX=1;exitY=0.5;exitDx=0;exitDy=0;entryX=0;entryY=0.75;entryDx=0;entryDy=0;" edge="1" parent="1" source="YTfJnnb_gsRbAbClFj2Y-3" target="YTfJnnb_gsRbAbClFj2Y-4">
          <mxGeometry relative="1" as="geometry" />
        </mxCell>
        <mxCell id="YTfJnnb_gsRbAbClFj2Y-3" value="Address" style="rounded=1;whiteSpace=wrap;html=1;" vertex="1" parent="1">
          <mxGeometry x="72.5" y="1760" width="120" height="60" as="geometry" />
        </mxCell>
        <mxCell id="YTfJnnb_gsRbAbClFj2Y-8" style="edgeStyle=orthogonalEdgeStyle;rounded=0;orthogonalLoop=1;jettySize=auto;html=1;exitX=1;exitY=0.5;exitDx=0;exitDy=0;" edge="1" parent="1" source="YTfJnnb_gsRbAbClFj2Y-4" target="hEmQehjzcuKqoeFt75kn-32">
          <mxGeometry relative="1" as="geometry" />
        </mxCell>
        <mxCell id="YTfJnnb_gsRbAbClFj2Y-4" value="Equal" style="rounded=1;whiteSpace=wrap;html=1;" vertex="1" parent="1">
          <mxGeometry x="655" y="1630" width="160" height="120" as="geometry" />
        </mxCell>
      </root>
    </mxGraphModel>
  </diagram>
</mxfile>
